<mxfile host="app.diagrams.net" modified="2024-04-01T17:29:45.624Z" agent="Mozilla/5.0 (iPhone; CPU iPhone OS 17_3_1 like Mac OS X) AppleWebKit/605.1.15 (KHTML, like Gecko) Version/17.3.1 Mobile/15E148 Safari/604.1" etag="F07n8w6d3eB4wdx6cZ37" version="24.2.1" type="github">
  <diagram name="Page-1" id="F_nsnxNKqnD6t1AEiqRQ">
    <mxGraphModel dx="356" dy="674" grid="0" gridSize="10" guides="1" tooltips="1" connect="1" arrows="1" fold="1" page="0" pageScale="1" pageWidth="850" pageHeight="1100" math="0" shadow="0">
      <root>
        <mxCell id="0" />
        <mxCell id="1" parent="0" />
        <mxCell id="kyxt4yIuF7tabzBY4KPx-1" value="" style="shape=stencil(lVrZctw2EPyafUXhPp4d5z9cZTnaiiK5ZOX6+zSyAkU0yN7ym7yeITBXT8+Ql/Dpx+OX7w8Xb3+8vb78/vD39evb4yX8cvH++vz48Hp9w1+X8PkSPn17eX347fXlz+evt39//9Il+19/vPzVn/DPTc8a67qSt//efsjZ5Pj/L7/e5J+uzzt5Z1yd5b0p+VzeG9sm+dSkfDA+zfLJpHouH03Is7wzqZzLJxPDJB+LKe5cPo/TN/k4PHYoX0yj51uTw7l8M2F+figmi/s7a9rsoJBGSI4VvIlzBAJ8LCxwwTQ/KziTlQJ8OudQsMarHMqmzlfy1TRldDWxzAqIWhJZhwvQCQikUvAm0AnJeOFWJF6ZA43UbSLQuDGf4E2yohJgwxwHFJ9VCmF4fSi4NrL9WGFJbldk8SOXWSFJG2Li9EY6Ki8la+rsJST8O4IcK2RTZqOL8QJfAFdxrp9oqrAglwEnWxSkAQWAN+eFky4tcOCcqfCAwpfKAGlNEPevlgHYyiSqjgNgJVpAvlGEZSnjPu/u3sBCFmZpxhHAmyzyoRSWryZo/1MDdM4EHeAyG+CiSUrBjgvsqqyplKvGziGGT5UNOXHMelKrphZMJWipAzCPFdxBTyjqSsgy6mtoU6rwESbqawB9cUIv/DnQUVcaiESYI41WnkXqpchcB1whisClwGQkNlPVCZ7ZAn5xir2E8d+bQhx4dmrDHDj4raoTEtcnCFtQAFwZ8JAsRUQ6L00E6ahKOi9GI+GdwnjYQFfKEsRQcawAGFGogTDNqIpHKBZWlhLNG/M7wz1SAI5UcaWKSM+BwyVVPdRq0lwPJUpcap5Ro2iu2vIgBxsWW0nbGsB+vlINUsHZrZttGnkAyekRc6jrRi5PjZjTtdnRgk/dNCNZcxIFcIEy+7XpnohQ85WS7Fl1S51NIY+2fdZF8xyIVge2HStEpvRw9J02yjY009QJfjzvgxlqKtOpWFmOUNzBcYJ3BUVO0HEWhaqMcCYuVqsE7wrLCe9nnipEVogq1JiXFwUZareka5OUGwptOcGpOHjj7aIgahQKMS8Kymg/Os7eBg34dcklySv9SLV9HJSXgrFrpHV6t+VKqvGWFZg0PeleWhSaNpo2AfcqDn10PuFuUbvRo/ZHqNxAjS4lVzUKpCUQRSvQTqlH7g4KLCfIEcJxI+3JpL20Rk4R/A59SwUpyvTzCpGnGrSUrGo0DyduCkWuDlfKhC6nqCvIRabARVlBtTA5bnob0NZsdZo8pBHXjZ4g+RQ9KTyOgk54pVBHqu0YkwKmtq3aNgWEUikkXlxVJ/k6fEKRLlUqIA6E9+DXagxCpAlnStB433gt8NG6T/cIM8yAr1t1woIafQoRNvS1wGw0hhQ55Uce2jEGVTWZ+eUEvWxJjVcbeZs3z4Z26rv9TOFWzK+0QMSZcsr3nEupjMZ6rLD0hz5SK6OXwPWhXa0FAJW0R2iDQp3ZUGhTUYxXy5PAnT1GWdN9FzKjRnT3ti3E70OVBZQqU+OAdFTZarmmw9aIz7KVti2+SlxCbhK2egxSSiEvu183RorTPQLRmXKPrdOKyUWNS4HpvXNj/3K6Xya41++vCu/Hk5yngdSNwqZpQOOVl5M7BIyutKWwo5rO7kNrQR0ysAyaNXTWFc/PRxqqLK2MFkG+n8yBkzTpnWPh+xS5JgIYsf+tfueTuS5dkAuTuHRzl2Un7G88SaHK+RBIQptc1+Q6A0hCcNejrN5aV57TETaFLf5oBa+81NOA8ijJbu6XOR2RVleCTwrZUAcxO1aoo3I3BT1lIK60CQhWwp3b3qnuMF4NlEg1ap0hDDw4VvDL+/Q0hq2TDSKvxpCOaoXTeHaLVk6HlXkhWrN6EZL5/T56vyJtiRvzB6E5Ls+RZZt8GhPEce0MeN4RMDU+ex6R0KeV/EK/0HXVwON4ZuukVn3/wNM85OW3BpxAYNlWraC5aPqrA1U0vOa586rB8k6yy4v7WN7cdnmRP3YZQ4p84W7Hrm8vL5/vlnipneo2Ne3jq+Uty6uN6s9+8HRfHn98fF317fr0dPs4a////DUWfrp9yRU+/wc=);lineShape=1;strokeColor=default;" parent="1" vertex="1">
          <mxGeometry x="116.59050396275927" y="53.68366545286244" width="167.11013182725003" height="321.27874657807706" as="geometry" />
        </mxCell>
        <mxCell id="kyxt4yIuF7tabzBY4KPx-2" value="" style="shape=stencil(lZzbkhzHDUS/Zl876n55luX/UIQok2GaVFC0Lf29UV5Xz3Ri5oz1Rq0K211VADKRQO9b/uG3jz/9+uEthd++f/v69w///vTz949v+S9vKX368vHDt0/f7V9v+ce3/MMvX799+Nu3r//88vP7f//601q5/vWPr/9av+H3d7twpL6MUvjj/Qc1HTP+9yd/fV//+dOXu/X5qLI+HCE8X9+Oki/rSz9qe74+hqOFq0HBB8R6pHI1sD2BgW05jotBbkceYGBPSFeDtE/h8RmFI19fKY1jJjCoR7meqj3zf+f20MC2WOLVIB2pgkHVTcd5ZNhDmUcXg3b0+dygntd0GpSjwqZrP6Y8wY4VNt3i0erVIByDDMox5sVg4qm2frTrvY0jwZabndH12vq+lofrezxKu6y3I4X36XmH4hlsx6Df39Qr7Nbp98+jXm+g7A09XD/ijpO79fA+Ix85yfoG5znM6aesH+DUwzwoy34bvM+0uLw6UN8v+Hh92g5853CJHlCOfN2AxQA+oR3hugMLS0q/s2+PPAO/H5GeMI54DUtLNhSWZqAZ2+IY8qm90hBIyEeCFG+bztcnWGRH8LtpoHPddLOXhFcaUwOhVwSRUY54jUzz9VAgdGzTkioaHms3XLue0oz7mY+Ti+Hw9QnmXQNeyRKw3IPdDL1Sace4bnpOvLg8j3A1iIHRP8djBH1EhZBeGSvpJhrkMIsXiSA7pgjHFLNL8nNH7WPv001bWutAFyy8xPd4B1kD1GAiQDQkfZ9mMAHvnxwoNMySeefcM/7NKwg1NamWiO8zleBZQiKvswsT1FxsCjYQxz6/O3JEuGlbLpLn+6Z8jw0svzjqUsDpjGHKK42jw55L0rhpyCyKQ3KLIwgzcwE504I+bS4msFOPTEwkbOJxe/8JecKYizgFw+CwIHBASzdm2TlL6prMLaYSZtsCZS4jF0IGc2FUiy5wEjqFPUGcwmq1QJseOxDvgLbANY+q2G8Xifc8laFasqMqoSeXffMmfc88TziesT5K1waDVfL1RN8rHnIi1oMrmAU37R4ovxhZGPoEQmYrUVvSPVTY9KKZV1+yq6RNT61QR0BQqLsyO++57N/wBHTEL6y2omuOyvxbwFt2lciSLehEd6F1xlpFflf19+eOVzw1H9lPIqkWWTmwbYlqWUOkIRhVN6N8vONHxUsj6mWRe/UJS8oUBlkVgowuVMLOn+cL7Zz8eP3YPG6vN67JmBanridlqmjcR+QhRst6lP1StdyHJqKOdZTVIJ5U0Ast3iobGDszPatnu3hpQaczKj2vW8iJ69m6C/w7MY5yqRnE66EWJndWC0apNjuSu5U5rwatIR+3exCDVTySY4x9TWcyTZuOPWNHgsuG1A2O1dMvOwby7Vp3fXwaVJSaSlfnsyq9E6OdR6/6hEmiaFKSvcp6ll2bA3KSLI3RtasvGbcYcKyGmkX0oI4pack/EtIB03xXEmlVPfLyvcE7KYVgs6rmWgrWIU1pudVeDdYPheWVw6i4TlrMWhImqTw21VEip6RVzl6PKDJFvWm+tzRMV2BA31RERaH8RMnbemQWbb/uDWbJhVpV8jgQRoyYCYzHs1h6VkuJYLGUfpKBp+ZsuxQKG4OR5PohgwycsJtPzfBJYIYHkUBsZ07NwfVUAZ7KnFKSJ1TXF1KJUDNRGLEaVaDNymJyPctWkuWXQg+xYCRcrtrAbpKzOrnZqq9OfaauWd68ZRAsjK2on7AQUIpIrjFlT+hwccmXnHXTmmdUOwosTFRfjMxrdRR25+lZmgyuMEdoSwrPNSLaWhYVWbRkLMwt5ovrir7I3KrjnUrgMwNhn2YQ4abtHkJRA1JGzUBS6zIguOoqmy0DfqXhElOkYx27bLw/JdrDcBDdkCYtg6oGyHqGOt+qbeniLBtXNaBmsxlItZ079mvMQEA9v5AL+m7x3xkQKprzKaJ07AUvb3VPyPyEWtQgUtZwGuy6OLrpRwbE3mLTitsMCOPWppMakPa/jtU9AXWP7mYpXoZocVmDqrHYtTBZr/TCvd2x4k37lmrbuPr/hygVV8vAndJ8kQT+nEHVmy4nYjwDFFFXXojPMWu6X11eiumqeo+hKGaNoe69JBeiDlnTvdEfYjM5aKocPBFibEZgd9WsXHcLb7UnFFa5pM0wGHabq7BGRi15TZHIEwKC4uKQQn8q1wNukMeYMfHW6epW8yUSfaZdk/CljBTODESPLcyMp2t7Zm5xzaQC7uqEUpnV9+87DTJPPUSn+HYkid2PbPEpNS8roVhnzirx07GHZrW05G5OrCvckqwnkpuDFhscbEvRlvGcyG2JseHyXqUng6wiV+JZmBgUS+xM6Q48Y627kH0iEYnKXQpuuWszbE3/kLy6A/culDtl+ehwZG4e9AxHZKylNxStUlCDkZBBJyf5WNImaMt5E+wzbhIOkuW5A/c04GHKcjLyOzmWkKoWxZE1vAaO15ImPEvjJBPZNYlgMnj0tzendEWs7A3IpEC0jIYZ0lG9xtxwur5kZQF0Zs2QZaAvmYFMwa7ZXhqfyZucngGdEEdsD0K513AxdUz6bqWeSYx7MsO9UszYJrpNRN3yMA7Cxk1AbhorSW8tq+slzDG+dRg3B3ocbcOJ0HhnJaqyl9Cxc1GCVFBEW0lVB5EJB/2Ml2VZFHumfiawilEqqorm1CXcExC6+chFj2gCU5l25uHrosJkqShiZKUua8KARh1dqyfgHGJRzbB1njh1uS5j2K8Dvb5Qnwy01c2E8Hh3im5odvCXF04MmwFreaMqkolmYAJZlGSv4R8emhVkHtxesdQiVepo2F6x3FUFBhOClBWxosQaMGLfIOumF/QSbnbN18bBErUBpyoeS35mA9Hc10QjG6goWVCfW1xC8gXHz6pSBQYD9z6Dg0GmVFb1CqWKrHi0qTlvcPsm+6lKYmAGazKB0vCay9SRc5aeS97N5jvYoV6PEzvii/HxoG60Wi3g2ck3PweLf1M7Yi+mmAzYpsMpHM2L7nOzitHZtTFZEgJbVd3ZrhHJi0qF9cWc1x5KPZ0io/ZSVPzvHGddM3B/IV0GlcFHwmQU3YcRluOp1EmumWzl2qShBDf2NBuTi+g+7hiIInm4EdKBhUhpOtsyOw5WGBJqBdmQwKz2t6B5RnBe6c6Jo6hPNTfQU9G1R1JfHQHDf7hvl6yCTDSvFlWUax0HT6cbRzZeiANu7pOwmrFNOl3jqRSss2dz7QgeJV1SgsNa/GTGDW2nF2OASWtUw1qKhxl0QDdGVIWWrC5D2yxTNadeYH/EPFOHN/h98oNvEYkVTkW2zpP5TWGkY8HWi0qvHQlbT6qwD9xvD8rXBsb+7Qu/231R9dLctKDhBPV2LH2JQ0Se56nDjaplVFKrY5yr6wZnVIM25SI7XXETQ2vcjhhbVFRYPQX6OM0ll8UJCajcEzLXeKm5UfuMknly38287v3rx04RibylEkGF9bUADfS6rwvG9sYnFEkcw8op+og3qm+vspUkcDctVHjSxv0RiLJ/8mS9aBG2npJRUM1/rYcbC/q9742cPFmf3XqC/aBos84T31+1oIzJMWhbytbTMKLjm6tbyeuLrufziY5S0CDVn/2jIK/X2z9uf4Hkl0+fP7//AZP7/69/scR+9P7XTvKP/wE=);lineShape=1;strokeColor=default;" parent="1" vertex="1">
          <mxGeometry x="166.58609601038802" y="75.7944818635433" width="146.19863702434793" height="170.53511949670474" as="geometry" />
        </mxCell>
        <mxCell id="hTxQjTaHY3he5iQ5pmYI-1" value="" style="shape=stencil(lVjZUtxADPyafVXNjOZ8Jsl/pCoQtkKAAnL9fdpZxllp7U54M4vl0dFqteagV8+3Hx+vDyk8vzw9fLn+cfz0cnvQd4eUjve310/HFzwd9P1Br24enq4/Pz18u/90+vvx4/Lm8vT14fvyhZ8nuxSk6mKVwq/TL0NllD+/fDgZ3B3vzwxilhKMQSsSOzXI3RiUKinsG6QoIxkD7aJ530CLqI0hJelj36BEKdEYxEANapOS7QnSdP/9niTZEIIEEvKoUu37beZgO6dh/d7qUJDWyAkq1YasVRpxqQdJ1qCEmYTtHCVRa1CjBGKQUTYbdO0SiUsKrDroJakMel2CdallicQleFStR0UywYVKtO+XJKWyus3j1yo0iQRIC86GrbPSCHTIsC7FxENuEwZrDNJJ/yODrjurZAK8PiTY9o/IMskpeqHZbkbdI2kGGAxrkKt0UoWRJi7XEMLM2l47x2JxFKURl1qYMFgN0NCMkboURwAoJIE2mifYoJdeIHXIwbdnGRO92wZZgg06qyTiElj1lYFWrKL2jFUviD42Co0GErPdMGjMI85RdnbAKw1uF7rO89eYMe5YN6A/u88qG58lS3VQUlFGes3PW6CRnVAnY63vD8rb6iPoYGGSoyjVQruDMEgRgDsbcNcJrJ333WRbOoF+v9pmbisfbFOqRJsfMFoi/mSvFdo63LchMbXKGVeweDETsgs4UPqK6jPa1ppsGxQZ7gSlfYYucZ3c+FDAoG2O7/ocXLsGDqVxOrnnUrd81zN3qXoc9UZVJNLqdCoah8mRGLwo7IOOkbZxQCedlr00R2cyuZMmPa/v18mXe50zfEqZYAteTaFmTNUGr++WIUiZpVj/gbpA4tVJ/medyfJZvbpD3yhhiiHq/An0+1BavpOjJNYFbzVI3bd+hdQhJciYFRaj0HuMrbGbdVs0iKlADOBAsy4pZAITU9GnNXEhgqw7mQAtQ3VFn0k82zgZBS8TwyIJ8qqQtLbLoLEuEShVnSvvmY7vTJYHr75Q+8zGePP7GhY8ttOm4oUFtAkbnNjCs9t2Ig26qJf+UFNMBQNL4yKGQhgAo7tZeGOwJLakAnxOo2Yum7FCWvBpnlvoXh3qxTYSiF7QeLGAtSnV99bg5hbtQXf/RULaGPo6Tfcq7Wcn12A4wW2d2LFYT8PAMd/IlPn0gryx9iWWpTzRvxr8I2idpLIaDDoOUbhQvUFj87l7HXZ2j7NtUb2uwhFspAPN3qBTvgcNuVIjTYWdEP0lzCj0rurNN4z/YYCHvxeaN8e7u9N96Pn//QUofjpdnur73w==);lineShape=1;strokeColor=default;" vertex="1" parent="1">
          <mxGeometry x="240.54299410892042" y="139.13650040366372" width="22.204654280503064" height="21.8543005272694" as="geometry" />
        </mxCell>
        <mxCell id="hTxQjTaHY3he5iQ5pmYI-2" value="" style="shape=stencil(lVbLbhsxDPyavRIiJepxTtP/CBCnNurageP08ffldrGJKUNT+7aWOSJFzpCc4sPb9ul1M0l4O5+O3ze/ds/n7RS/TCK7w3Zz2p3ta4qPU3x4OZ42307H98Pz8vv1abacv34cf843/F5wrZDKjJLwZznRQDn9O/m6APa7wwWgKqXsAEWI8xhQmDQ5QK1UyxigmVpwgKZUZQxITJU9oJLqGCCFuHhAIwUhcaIYekADIUkfEYdAIQAP1K6eUEFWmZj7HCmP7QOl6u3D+qSBPfsH10ilIfvg7UumDEpg9zdnnxvliOyzZ12OlFDFKKqnteUTvFf6eIyFDOKJfX5UqQBCRGqecVooI05Tif69DGWpJL6+uawZGNirj6ck4nvsq2X4nnhM9Oh+e69vEi1SrTCfvl7WyBquV6eXBvUlJFf2CfDfsuH52TJVyP/cdaAPjwN76fSYKYD4r/XYKGA9dvYfHem2fpKVIqgX9/fnAPnA/QwwPRagd1nVfaFHBfWStZvdaG8TQEoPENRQSs84TZQAQ22KdS1O7VEAYBnpRndqsAbFSOeTZD5RU6+JgvdgOhXgwUgffNsyl8DBLBLu7NGUnLeV2tmjrm5DNPr7I1SB2Tc/NmyKARXMTcHXjBknqK2bzAfAeI10E66U/Mn1kYuuNUpdT4YxeQ8xUcOPSL7KydoBGAZzWn0Zkq5EGQHE5zXZRvcfYty1xt4AsI/Prfllt98vS/fl//2WbUfLhh4f/wI=);lineShape=1;strokeColor=default;" vertex="1" parent="1">
          <mxGeometry x="202.07988053450936" y="365.5281424812574" width="45.38286963935445" height="5.735162992031746" as="geometry" />
        </mxCell>
        <mxCell id="hTxQjTaHY3he5iQ5pmYI-3" value="" style="shape=stencil(lVbZUhtBDPyafVXNjObSM4H/oAoTb+HYlDE5/j7abNZYwtsu3paxGh3dOga+e9s+vm6GFN5Ox8PL5tf4dNoO/G1IadxvN8fxpF8D3w9893w4br4fD+/7p/nv18fJcvr6cfg5/YffMy5R4QmUwp/5IVAI/x4eZvPduL8wj4mkGfsYKbZ1QKqUqgEkph7XATkRRwPgTJnXAUWoiAHkDENqhUoxgBJI6jqgd8rZApgkrQOkU7A5lEKpQEB1IVUqgAcRSskCBOaggGqJqxoSqJICxCqjReodSCOcpXNGCAWAUBfdZt0rxQwBxdZVVC24TI4IqbeYyzaHySdQnzRqxQM6yqFRtMzpS0ceqte3MDWUtLaczaE3yJwCHHE9wikwAWxZm4aE1Fe9XOsNHipVB4iUwNiYymrnTGm3AM2WVXuUcY/6KVCooxxUfK6pOxXcD8V6qEyMpKFSc00t0MO1HtVK47khlojOS9euDhqbhARigYDo9F0Wxa8OS9fUnQRT7ZdWwGvu6wjdEVw/BQWo0C3kJ02lDOSkA57FFxYpXDdpsEloWyfAdSpLGS9GfgVM6DXwX21n/QWov+RnX4mL5K87oGIz0E2N9mj0Gee27Pqr9sFrNfPiccWeLWesHQ0qqpqxlHGCx8+n7tTzqcL43YTRlwzqqdWzOz1mWP/gr0M9O4Ae9Ixy5SRB8lnuunM0sI2j70ks/y9etjfN9ePjiH4ed7v5Br/83R/d+jQf7Hz/Fw==);lineShape=1;strokeColor=default;" vertex="1" parent="1">
          <mxGeometry x="185.5289343696627" y="421.5336149279897" width="63.26135951148058" height="5.690311302757436" as="geometry" />
        </mxCell>
        <mxCell id="hTxQjTaHY3he5iQ5pmYI-4" value="" style="shape=stencil(7VrLchQ5EPyauSoklV51ZuE/iMCsJzA2YQy7/D3VO6GmlerONseN4DYMSkv1ysqS5iJvvt6//3J3if7ry/PTp7t/rh9e7i/y1yXG6+P93fP1xT5d5O1F3nx8er77+/np2+OH27+/vF9WLp8+P31f/sK/N1x0LSyg6H/cvvAux/++eHdb/nB93CzPLvphubhcjpdXp2VYXlwOx8tDcDKeRl0kpwl2nDqst7+gjQDUtfH8IbmajwFmsI8joLqSjgHiXRpNMI8mciTJrugIiNSG5F2BHeyQQgDJtdGGJQxsh+by6CULZCZeysG1NAJaT5R9QHKaEVCJW3N1bcwkS41AUqN4VyMCciWA7GQ8koUykyOV1p24AqILJA7VOz8GTpITAiiK5SPFVVJuxXITylNppM3oPCafZVcjkS7i0hjpZBXHCEORYJK4QuKQi1MZAZYsPJfaGLi0WnUECIqASmgpS2et1wIi1oMBCgdEQUBigNAPsAEEDgBqNbfSigvOFwQIi7THbLVINxbp0GlrAzgxOsIORpUs0qFz9QZwEocwAYQlX+xO3AA8qbicezJvAKxErYCgx5mXPC9R6NEGYAVkrNFgh9zTcZ/ILL0hcNUFEulase0mdYkAmoVp5NalQojRrSJ7m6MTMVoDsnduNA661teqZYz5SAFpxQ60tBhitGqvrxXQOo/sqxlvHWX0q4WG9SzbAjp7LdSvZkQe87sqTSZd2b0DmuUjqdE2acRWaOSadfaRvpvSNmo+SaPRGilXWgXJeCRNvbEeNQgdj6SFtiCj0gSA2hXRkUpMY25o60W4L1ytIsEGpeRq0rh6BDBpHCae2eTjPsLIsuEWSirCAKIIYPIkrOS7ARSimGxeaBOAuimgnjEAU307O5xUtdlQEcCSafHStAOroCUO0w6RjU2CimkB8NyAGcUAwtwqPRG2NrAdUj/ABsB0pQHSdCRlgTPA2OX0ZBpNyN9LLrHApZ1srexIgmpDORsbQGYAzyWdbDgB5Kke6JFilwqvNTrgQHDm1oDz7lngpvF1SY2TEvUIoMkXUcSdpbcJIEHASQH5qR5OSvQ3AdpvhjYARvexuDY1OUbG1uR8QoBnbVR6mDZ9lynXPBOZDZdMCkTUlaYdWMuqASc55TdqpqdAnZgiagRg8iiC/sn9YuFQ6oLCit0NR1IXBjM7ZCSBM6+3SVZ6JnUr1oOJNCY2bAeY5Ip2bXAo10cvFZ4aFtc6Gm0ykNmwqM7xSDaqMdZo0wSx3HWwSFvmjEfKiVZczSiNbQJm80D1SPfp5MKoTCN46yPzPmAiY5sV48lNHwAKvXH9c//TAX/uf/4X9z8Yh8B3aDj5idJR0VoWdFFptOJKmnYo/eri6NYYtLckynzGpMCtIvTCyJgU0lsiJWNjDbxbD/SpaRnZp+t+5lZLb+AlAzC3Gs/JaHRUev+zZP/YFKNxK3s6UpzAl4cd9jhlzAfPLuuQsy/hWn9vWAHrOLsPEExvk42e5FKoOPiFQjXfMtLAtYPwKyycN4LnLINqqfYuvG+xK9Cu6HOf7xFdT+MSUVYeRXqgIma6DwxUL3hkCk+flzx60lPP+J7tv5azazqPXO0pRXisX9/71X7aYNacXFX1QeV1yyOyDz9MRGbgpkZ81fO0Ef/mk/7pcvvw69cDH68PD7cfH2z/H39tYF/dfqkgb38C);lineShape=1;strokeColor=default;" vertex="1" parent="1">
          <mxGeometry x="199.58203692374036" y="370.5912526912218" width="95.01060195246873" height="142.3974077719272" as="geometry" />
        </mxCell>
      </root>
    </mxGraphModel>
  </diagram>
</mxfile>
